<mxfile host="app.diagrams.net" modified="2024-01-31T07:43:13.088Z" agent="Mozilla/5.0 (Windows NT 10.0; Win64; x64; rv:122.0) Gecko/20100101 Firefox/122.0" version="23.0.2" etag="rnPWnmx_dT9QH52MsvF5" type="github">
  <diagram name="ページ1" id="cYYjbXzbKIoP5pLxHwCz">
    <mxGraphModel>
      <root>
        <mxCell id="0" />
        <mxCell id="1" parent="0" />
      </root>
    </mxGraphModel>
  </diagram>
</mxfile>
